<?xml version="1.0" encoding="utf-8"?>
<!-- Generator: Adobe Illustrator 21.1.0, SVG Export Plug-In . SVG Version: 6.00 Build 0)  -->
<svg version="1.1" id="Calque_1" xmlns="http://www.w3.org/2000/svg" xmlns:xlink="http://www.w3.org/1999/xlink" x="0px" y="0px"
	 viewBox="0 0 64 128" style="enable-background:new 0 0 64 128;" xml:space="preserve">
<style type="text/css">
	.st0{fill:#557A40;stroke:#356334;stroke-linecap:round;stroke-linejoin:round;stroke-miterlimit:10;}
	.st1{fill:#8E5825;stroke:#613F18;stroke-linecap:round;stroke-linejoin:round;stroke-miterlimit:10;}
</style>
<g>
	<g id="Calque_4">
		<path class="st0" d="M25.1,93.1c0,0-6.9,6.8-11.2-0.1c0,0-7.1,0.2-7.6-8.3c0,0-6.1-3.8-3.4-10.8c0,0-5.1-4.8,1.1-9.4
			c0,0-0.3-3.7,2.8-4.8c0,0-2.1-3.7,2.3-4.7c0,0,0.5-5.8,5.9-4.5c0,0,1.9-3.8,5.1-2.5c0,0,1.8-5,7.4-3.1c0,0,4.4-4.8,10,0.3
			c0,0,7.7-3.4,8.7,3.7c0,0,5-0.4,4.8,5.1c0,0,8.1-1.3,7.5,7.3c0,0,4.4,2.1,2.5,9.3c0,0,4.8,5.8-1.1,12.5c0,0-1.9,11.8-12.7,8.4"/>
	</g>
	<g id="Calque_3">
		<path class="st1" d="M25.5,116.2l3.4-3.7l1-8.3c0,0-1-1.9,0-3.9v-2.8c0,0,0.3-1.1-1.1-2c-1.3-0.9-7.2-4.9-7.2-4.9l-7.4-6l0.9,0.4
			l4.2,2.1l-1.2-3.5c0,0,1.5,2.2,3.4,3c0,0,3.3,3.6,8.9,5.7l-0.6-3.9c0,0,1.5-0.4,2-0.6l1.5,3.7l1.8-0.5l1.4-4.3l7.5-3.5l-4.1,3
			l-0.8,6.3l4.5-2l3-0.7l2.2-2.9l0.9,0.1l-2.1,5c0,0-7.7,3.9-9.5,6.3l-0.1,8.9c0,0,2.5,8.2,5.2,10.2l-6.3-2.8l0.2,2.8l-2.8-1.9
			L25.5,116.2z"/>
	</g>
</g>
</svg>
